<svg xmlns="http://www.w3.org/2000/svg" aria-hidden="true" style="position:absolute;width:0;height:0;overflow:hidden">
  <defs>
    <symbol id="icon-phone" viewBox="0 0 32 32">
      <path d="M2.126 1.188C3.404-.093 7.267-.307 7.296.371c.029.677 3.479 8.191 3.509 8.869s-2.274 2.987-2.948 3.663c-.668.669 4.508 6.533 4.606 6.644.11.099 5.96 5.287 6.628 4.617.674-.676 2.979-2.985 3.653-2.955.676.029 8.173 3.487 8.849 3.518.676.029.463 3.9-.815 5.182-1.093 1.095-6.752 5.071-16.592-2.029-1.079-.622-2.788-2.049-5.38-4.646a.022.022 0 0 0-.005-.004l-.006-.006-.006-.006a.022.022 0 0 0-.004-.005c-2.59-2.598-4.014-4.312-4.635-5.393C-2.933 7.956 1.034 2.283 2.126 1.188z"/>
    </symbol>
    <symbol id="icon-user" viewBox="0 0 24 32">
      <path d="M12 16C5.375 16 0 21.375 0 28c0 2.211 1.789 4 4 4h16c2.211 0 4-1.789 4-4 0-6.625-5.375-12-12-12zM6 6a6 6 0 1 1 12 0A6 6 0 0 1 6 6z"/>
    </symbol>
  </defs>
</svg>